<svg width="101" height="60" viewBox="0 0 101 60" fill="none" xmlns="http://www.w3.org/2000/svg">
<g clip-path="url(#clip0_760_909)">
<rect x="0.5" width="100" height="60" rx="4" fill="#00AFD8"/>
<path d="M16.686 42.8156V34.8262H14.3478V32.3564H21.8827V34.8262H19.5385V42.8156H16.686Z" fill="white"/>
<path d="M23.276 42.8153V32.3561H26.2661C27.0827 32.3297 27.8999 32.3837 28.706 32.5176C29.1383 32.6101 29.546 32.7936 29.902 33.0558C30.2781 33.3422 30.5763 33.7185 30.7691 34.1502C30.9758 34.6107 31.0799 35.1106 31.0741 35.6153C31.105 36.322 30.8941 37.0181 30.4761 37.5887C30.0345 38.1217 29.4176 38.48 28.7359 38.5994L31.5884 42.7854H28.3472L25.9551 38.6951V42.7854L23.276 42.8153ZM25.9491 37.2837H26.4574C26.9279 37.3196 27.398 37.2089 27.803 36.9668C28.1035 36.7379 28.2714 36.3752 28.2515 35.998C28.2887 35.5881 28.1419 35.1828 27.8508 34.8917C27.4569 34.6327 26.9868 34.5146 26.5172 34.5568H25.9192V37.2837H25.9491Z" fill="white"/>
<path d="M31.4273 42.8156L35.0153 32.3564H38.6034L42.1915 42.8156H39.3808L38.8546 40.9439H34.83L34.2319 42.8156H31.4273ZM35.428 38.9047H38.2625L37.1981 35.4541C37.1662 35.3505 37.1203 35.181 37.0605 34.9458L36.8393 34.0428C36.7755 34.302 36.7157 34.5472 36.6599 34.7784C36.6041 35.0096 36.5443 35.2329 36.4805 35.4482L35.428 38.9047Z" fill="white"/>
<path d="M43.2017 42.8156V32.3564H45.9526L49.9054 37.7385C50.0421 37.9533 50.1678 38.1749 50.2822 38.4023C50.4576 38.7332 50.6569 39.1319 50.8802 39.5983C50.8244 39.1638 50.7825 38.7791 50.7546 38.4442C50.7267 38.1093 50.7127 37.8083 50.7127 37.5412V32.3564H53.4456V42.8156H50.7067L46.7539 37.4335C46.6126 37.2226 46.4847 37.0029 46.3712 36.7757C46.1958 36.4448 46.0064 36.0462 45.8031 35.5797C45.8589 36.0183 45.9007 36.407 45.9286 36.7458C45.9566 37.0847 45.9705 37.3857 45.9705 37.6488V42.8156H43.2017Z" fill="white"/>
<path d="M56.1486 39.4367C56.5067 39.8607 56.9307 40.2241 57.4044 40.5132C57.7758 40.7403 58.2011 40.8641 58.6363 40.872C58.9757 40.8861 59.3089 40.7779 59.5752 40.567C59.8135 40.3801 59.9507 40.0924 59.946 39.7896C59.9643 39.4887 59.8483 39.1951 59.629 38.9882C59.1922 38.6968 58.7026 38.4936 58.1878 38.3902C57.3825 38.2276 56.634 37.8564 56.017 37.3138C55.5798 36.8214 55.3523 36.1776 55.3832 35.5198C55.3383 34.5965 55.6935 33.6987 56.3579 33.056C57.0666 32.4104 58.0015 32.0708 58.9592 32.1111C59.5139 32.1085 60.0659 32.187 60.5978 32.3443C61.1195 32.5029 61.6137 32.7409 62.0629 33.05L61.1719 35.1012C60.8722 34.851 60.5352 34.6492 60.1732 34.5032C59.8534 34.3675 59.5099 34.2964 59.1626 34.2939C58.864 34.2799 58.5693 34.3662 58.3254 34.539C58.1201 34.6844 57.9994 34.9214 58.0024 35.1729C57.9934 35.4146 58.0973 35.6466 58.2835 35.8008C58.6137 36.0196 58.9834 36.1719 59.3719 36.2494L59.5034 36.2852C60.3456 36.4278 61.1413 36.7703 61.8237 37.2839C62.0751 37.5492 62.2668 37.8653 62.3858 38.2108C62.518 38.5955 62.5827 39.0001 62.5772 39.4068C62.6157 40.4094 62.2188 41.3797 61.4888 42.068C60.6854 42.769 59.6415 43.1313 58.5765 43.0786C57.8947 43.088 57.2179 42.9619 56.5851 42.7079C55.9437 42.4294 55.3596 42.034 54.8629 41.5417L56.1486 39.4367Z" fill="white"/>
<path d="M64.1858 42.8156V32.3564H70.5905V34.6528H66.9606V36.4468H70.3812V38.6894H66.9606V42.7977H64.1798L64.1858 42.8156Z" fill="white"/>
<path d="M72.1396 42.8156V32.3564H78.5443V34.6528H74.8964V36.4468H78.317V38.6894H74.8964V40.4535H78.5263V42.7977H72.1396V42.8156Z" fill="white"/>
<path d="M80.4341 42.8153V32.3561H83.4241C84.2407 32.3297 85.058 32.3837 85.864 32.5176C86.2963 32.6101 86.704 32.7936 87.06 33.0558C87.4361 33.3422 87.7343 33.7185 87.9271 34.1502C88.1336 34.6107 88.2377 35.1106 88.2321 35.6153C88.263 36.322 88.0521 37.0181 87.6341 37.5887C87.1929 38.1221 86.5758 38.4805 85.8939 38.5994L88.7464 42.7854H85.5231L83.1311 38.6951V42.7854L80.4341 42.8153ZM83.1072 37.2837H83.6334C84.1039 37.3196 84.5739 37.2089 84.9789 36.9668C85.2759 36.7291 85.4351 36.3592 85.4035 35.9801C85.4459 35.567 85.3011 35.1567 85.0088 34.8618C84.6149 34.6028 84.1449 34.4847 83.6753 34.5269H83.0773L83.1072 37.2837Z" fill="white"/>
<path d="M31.744 30.4602V16.5146H35.5653C36.6678 16.4883 37.7707 16.5383 38.8663 16.6641C39.4306 16.7463 39.9766 16.9243 40.4809 17.1904C40.9799 17.4527 41.3945 17.8507 41.677 18.3386C41.955 18.8478 42.0952 19.4209 42.0836 20.001C42.122 20.6829 41.9093 21.3551 41.4856 21.8907C40.9512 22.4236 40.2706 22.7858 39.5301 22.9313C40.4127 22.9567 41.2491 23.3309 41.8564 23.9718C42.4382 24.664 42.7372 25.5504 42.6936 26.4536C42.7076 27.1371 42.5449 27.8128 42.2212 28.415C41.9118 28.9763 41.4437 29.4339 40.8756 29.7306C40.3221 30.0094 39.7258 30.1933 39.1115 30.2748C37.9743 30.4063 36.8294 30.4602 35.6849 30.4363H31.744V30.4602ZM35.2663 22.0881H36.0258C36.6852 22.1385 37.3471 22.0319 37.9573 21.7771C38.3199 21.5475 38.5232 21.134 38.4836 20.7067C38.5348 20.2743 38.347 19.8482 37.9932 19.5944C37.3943 19.3292 36.738 19.2202 36.0856 19.2774H35.2723V22.0881H35.2663ZM35.2663 27.6137H36.6238C37.2801 27.6616 37.938 27.5444 38.5374 27.2728C38.9245 27.0337 39.1424 26.5956 39.0995 26.1426C39.1407 25.6827 38.9473 25.233 38.5853 24.9466C37.992 24.6618 37.3331 24.542 36.6776 24.5997H35.2723V27.6376L35.2663 27.6137Z" fill="white"/>
<path d="M43.3393 30.4607L48.1233 16.5151H52.9074L57.7274 30.4607H53.9659L53.2603 27.967H47.8782L47.1546 30.4607H43.3393ZM48.6616 25.2521H52.441L51.0237 20.6534C50.9798 20.5138 50.92 20.2886 50.8443 19.9776L50.5513 18.7816C50.4675 19.1245 50.3858 19.4514 50.3061 19.7623C50.2263 20.0733 50.1446 20.3723 50.0609 20.6593L48.6616 25.2521Z" fill="white"/>
<path d="M59.061 30.4607V16.5151H62.7268L67.9953 23.6913C68.1773 23.9757 68.345 24.2691 68.4976 24.5703C68.7289 25.0129 68.984 25.5391 69.2631 26.1491C69.1873 25.571 69.1315 25.0567 69.0956 24.6062C69.0598 24.1557 69.0418 23.757 69.0418 23.4102V16.5151H72.6897V30.4607H69.0418L63.7734 23.2846C63.5855 23.0027 63.4157 22.709 63.265 22.4055C63.0338 21.963 62.7807 21.4447 62.5056 20.8507C62.5813 21.4368 62.6371 21.955 62.673 22.4055C62.7089 22.856 62.7268 23.2547 62.7268 23.6016V30.4607H59.061Z" fill="white"/>
<path d="M75.6799 30.4607V16.5151H79.4414V22.8481L83.8667 16.5151H88.2979L83.1431 23.3145L88.7464 30.4607H83.9863L79.4414 24.2055V30.4607H75.6799Z" fill="white"/>
<path d="M28.6941 16.479H13.2535V19.2418H28.6941V16.479Z" fill="url(#paint0_linear_760_909)"/>
<path d="M28.6941 21.8433H13.2535V24.6061H28.6941V21.8433Z" fill="url(#paint1_linear_760_909)"/>
<path d="M28.6941 27.6978H13.2535V30.4606H28.6941V27.6978Z" fill="url(#paint2_linear_760_909)"/>
</g>
<defs>
<linearGradient id="paint0_linear_760_909" x1="13.2535" y1="17.8604" x2="28.6941" y2="17.8604" gradientUnits="userSpaceOnUse">
<stop stop-color="#E70000" stop-opacity="0"/>
<stop offset="0.33" stop-color="#DE0000" stop-opacity="0.45"/>
<stop offset="0.74" stop-color="#CD0000"/>
<stop offset="0.79" stop-color="#C20000"/>
<stop offset="0.89" stop-color="#A60000"/>
<stop offset="1" stop-color="#800000"/>
</linearGradient>
<linearGradient id="paint1_linear_760_909" x1="13.2535" y1="23.2247" x2="28.6941" y2="23.2247" gradientUnits="userSpaceOnUse">
<stop stop-color="#E70000" stop-opacity="0"/>
<stop offset="0.33" stop-color="#DE0000" stop-opacity="0.45"/>
<stop offset="0.74" stop-color="#CD0000"/>
<stop offset="0.79" stop-color="#C20000"/>
<stop offset="0.89" stop-color="#A60000"/>
<stop offset="1" stop-color="#800000"/>
</linearGradient>
<linearGradient id="paint2_linear_760_909" x1="13.2535" y1="29.0792" x2="28.6941" y2="29.0792" gradientUnits="userSpaceOnUse">
<stop stop-color="#E70000" stop-opacity="0"/>
<stop offset="0.33" stop-color="#DE0000" stop-opacity="0.45"/>
<stop offset="0.74" stop-color="#CD0000"/>
<stop offset="0.79" stop-color="#C20000"/>
<stop offset="0.89" stop-color="#A60000"/>
<stop offset="1" stop-color="#800000"/>
</linearGradient>
<clipPath id="clip0_760_909">
<rect width="100" height="60" fill="white" transform="translate(0.5)"/>
</clipPath>
</defs>
</svg>
